<svg width="174" height="32" viewBox="0 0 174 32" fill="none" xmlns="http://www.w3.org/2000/svg">
<g filter="url(#filter0_iii_1202_5105)">
<g clip-path="url(#clip0_1202_5105)">
<rect width="32" height="32" rx="6" fill="#FF4405"/>
<rect width="32" height="32" fill="url(#paint0_linear_1202_5105)"/>
<g filter="url(#filter1_d_1202_5105)">
<path fill-rule="evenodd" clip-rule="evenodd" d="M13.8316 8.61598L11.25 10.1069L13.8334 11.5981L16.4157 10.1072L13.8316 8.61598ZM17.166 11.4061L14.5834 12.8971L14.5831 15.8796L17.166 14.3882V11.4061ZM17.916 15.6872L15.333 17.1787L17.9164 18.6699L20.499 17.1787L17.916 15.6872ZM21.249 18.4778L18.6664 19.9689V22.9509L21.249 21.4599V18.4778ZM17.1664 22.9511V19.9689L14.583 18.4777V21.4599L17.1664 22.9511ZM13.083 17.6118L9.56245 15.5789C9.2144 15.378 9 15.0066 9 14.6047V10.107C9 9.83913 9.14291 9.59156 9.37492 9.45757L13.2689 7.20877C13.6169 7.00779 14.0457 7.00772 14.3938 7.20858L18.2908 9.45745C18.523 9.5914 18.666 9.83904 18.666 10.107L18.666 14.3882L22.374 16.5293C22.606 16.6633 22.749 16.9109 22.749 17.1788V21.6764C22.749 22.0783 22.5346 22.4497 22.1865 22.6507L18.2914 24.8995C18.0594 25.0335 17.7735 25.0335 17.5415 24.8995L13.6456 22.6507C13.2975 22.4498 13.083 22.0783 13.083 21.6764V17.6118ZM13.0831 15.8797L13.0834 12.8971L10.5 11.4059V14.3882L13.0831 15.8797Z" fill="url(#paint1_linear_1202_5105)"/>
</g>
</g>
<rect x="1" y="1" width="30" height="30" rx="5" stroke="url(#paint2_linear_1202_5105)" stroke-width="2"/>
</g>
<path d="M44 22V8.39197H50.6827C52.064 8.39197 53.1031 8.71552 53.8 9.36263C54.4969 9.9973 54.8453 10.8373 54.8453 11.8826C54.8453 12.5795 54.6649 13.2017 54.304 13.7493C53.9556 14.2969 53.4516 14.664 52.792 14.8506V15C53.576 15.1617 54.1733 15.5289 54.584 16.1013C55.0071 16.6613 55.2187 17.3271 55.2187 18.0986C55.2187 19.3804 54.7893 20.3511 53.9307 21.0106C53.0844 21.6702 51.8836 22 50.328 22H44ZM46.8187 13.9733H49.992C50.664 13.9733 51.1493 13.8177 51.448 13.5066C51.7591 13.1955 51.9147 12.7911 51.9147 12.2933C51.9147 11.7333 51.728 11.3164 51.3547 11.0426C50.9938 10.7564 50.5084 10.6133 49.8987 10.6133H46.8187V13.9733ZM46.8187 19.76H50.0107C50.7822 19.76 51.3484 19.592 51.7093 19.256C52.0702 18.92 52.2507 18.4782 52.2507 17.9306C52.2507 17.3084 52.0578 16.8542 51.672 16.568C51.2987 16.2693 50.7822 16.12 50.1227 16.12H46.8187V19.76Z" fill="#0C111D"/>
<path d="M59.9432 22.168C58.7859 22.168 57.9023 21.832 57.2926 21.16C56.6828 20.488 56.3779 19.5111 56.3779 18.2293V11.9946H59.1219V17.5013C59.1219 18.2977 59.265 18.9075 59.5512 19.3306C59.8499 19.7413 60.3415 19.9466 61.0259 19.9466C61.7228 19.9466 62.2579 19.7102 62.6312 19.2373C63.017 18.752 63.2099 18.1795 63.2099 17.52V11.9946H65.9539V22H63.3219L63.2099 20.1706H63.0792C62.8428 20.8177 62.4383 21.3155 61.8659 21.664C61.3059 22 60.665 22.168 59.9432 22.168Z" fill="#0C111D"/>
<path d="M67.8375 10.7066V8.39197H70.5815V10.7066H67.8375ZM67.8375 22V11.9946H70.5815V22H67.8375Z" fill="#0C111D"/>
<path d="M72.5683 22V8.39197H75.3123V22H72.5683Z" fill="#0C111D"/>
<path d="M80.6965 22.168C79.5018 22.168 78.5374 21.7386 77.8031 20.88C77.0689 20.0089 76.7018 18.7146 76.7018 16.9973C76.7018 15.2675 77.0689 13.9733 77.8031 13.1146C78.5374 12.2435 79.5018 11.808 80.6965 11.808C81.468 11.808 82.1276 11.9822 82.6751 12.3306C83.2351 12.6791 83.6334 13.1457 83.8698 13.7306H84.0191V8.39197H86.7631V22H84.1125L84.0191 20.2453H83.8698C83.6334 20.8177 83.2351 21.2844 82.6751 21.6453C82.1276 21.9937 81.468 22.168 80.6965 22.168ZM81.7418 19.9466C82.252 19.9466 82.6689 19.8284 82.9925 19.592C83.3285 19.3555 83.5774 19.0506 83.7391 18.6773C83.9009 18.2915 83.9818 17.8871 83.9818 17.464V16.512C83.9818 16.0764 83.9009 15.672 83.7391 15.2986C83.5774 14.9253 83.3285 14.6204 82.9925 14.384C82.6689 14.1475 82.252 14.0293 81.7418 14.0293C81.0698 14.0293 80.5285 14.272 80.1178 14.7573C79.7071 15.2302 79.5018 15.9769 79.5018 16.9973C79.5018 18.0053 79.7071 18.752 80.1178 19.2373C80.5285 19.7102 81.0698 19.9466 81.7418 19.9466Z" fill="#0C111D"/>
<path d="M88.7383 10.7066V8.39197H91.4823V10.7066H88.7383ZM88.7383 22V11.9946H91.4823V22H88.7383Z" fill="#0C111D"/>
<path d="M93.4691 22V11.9946H96.1011L96.2131 13.8053H96.3251C96.5989 13.1457 97.022 12.648 97.5945 12.312C98.1669 11.976 98.8078 11.808 99.5171 11.808C100.189 11.808 100.786 11.9449 101.309 12.2186C101.844 12.4924 102.267 12.9342 102.578 13.544C102.89 14.1413 103.045 14.944 103.045 15.952V22H100.301V16.5493C100.301 15.7031 100.152 15.0746 99.8531 14.664C99.5545 14.2533 99.0754 14.048 98.4158 14.048C97.7065 14.048 97.1589 14.2906 96.7731 14.776C96.3998 15.2489 96.2131 15.8026 96.2131 16.4373V22H93.4691Z" fill="#0C111D"/>
<path d="M107.204 25.1173C106.059 25.1173 105.213 24.9244 104.665 24.5386C104.13 24.1529 103.863 23.6364 103.863 22.9893C103.863 22.4417 104.062 22 104.46 21.664C104.858 21.328 105.312 21.1351 105.823 21.0853V20.936C105.424 20.8115 105.107 20.6062 104.871 20.32C104.647 20.0213 104.535 19.6853 104.535 19.312C104.535 18.864 104.684 18.4844 104.983 18.1733C105.294 17.8497 105.698 17.632 106.196 17.52V17.3333C105.773 17.0969 105.431 16.7733 105.169 16.3626C104.92 15.952 104.796 15.4666 104.796 14.9066C104.796 13.9733 105.169 13.2266 105.916 12.6666C106.675 12.0942 107.689 11.808 108.959 11.808C109.17 11.808 109.388 11.8266 109.612 11.864C109.848 11.8889 110.066 11.9324 110.265 11.9946C110.439 11.2853 110.819 10.7315 111.404 10.3333C111.989 9.92263 112.754 9.71108 113.7 9.69863V11.8266C113.227 11.8142 112.804 11.8702 112.431 11.9946C112.057 12.1066 111.771 12.2871 111.572 12.536C112.02 12.7475 112.387 13.0835 112.673 13.544C112.959 13.992 113.103 14.5084 113.103 15.0933C113.103 16.0142 112.735 16.7484 112.001 17.296C111.279 17.8435 110.253 18.1173 108.921 18.1173C108.672 18.1173 108.423 18.1049 108.175 18.08C107.926 18.0551 107.683 18.0177 107.447 17.968C107.247 17.9804 107.086 18.0489 106.961 18.1733C106.849 18.2853 106.793 18.4284 106.793 18.6026C106.793 18.8391 106.924 18.9946 107.185 19.0693C107.459 19.1315 107.764 19.1626 108.1 19.1626H110.527C111.696 19.1626 112.555 19.3929 113.103 19.8533C113.663 20.3013 113.955 20.9671 113.98 21.8506C114.005 22.5973 113.849 23.2071 113.513 23.68C113.19 24.1653 112.729 24.5262 112.132 24.7626C111.535 24.9991 110.844 25.1173 110.06 25.1173H107.204ZM108.977 16.4C109.487 16.4 109.879 16.2693 110.153 16.008C110.427 15.7342 110.564 15.3857 110.564 14.9626C110.564 14.5022 110.415 14.1475 110.116 13.8986C109.817 13.6497 109.431 13.5253 108.959 13.5253C108.461 13.5253 108.069 13.6622 107.783 13.936C107.496 14.2097 107.353 14.552 107.353 14.9626C107.353 15.4106 107.503 15.7653 107.801 16.0266C108.1 16.2755 108.492 16.4 108.977 16.4ZM107.615 23.5866H110.023C110.856 23.5866 111.273 23.2693 111.273 22.6346C111.273 22.2737 111.155 22.0435 110.919 21.944C110.682 21.832 110.408 21.776 110.097 21.776H107.036C106.799 21.8257 106.607 21.9315 106.457 22.0933C106.308 22.2551 106.233 22.448 106.233 22.672C106.233 22.9831 106.351 23.2133 106.588 23.3626C106.837 23.512 107.179 23.5866 107.615 23.5866Z" fill="#0C111D"/>
<path d="M115.315 22V8.39197H121.998C123.379 8.39197 124.419 8.71552 125.115 9.36263C125.812 9.9973 126.161 10.8373 126.161 11.8826C126.161 12.5795 125.98 13.2017 125.619 13.7493C125.271 14.2969 124.767 14.664 124.107 14.8506V15C124.891 15.1617 125.489 15.5289 125.899 16.1013C126.323 16.6613 126.534 17.3271 126.534 18.0986C126.534 19.3804 126.105 20.3511 125.246 21.0106C124.4 21.6702 123.199 22 121.643 22H115.315ZM118.134 13.9733H121.307C121.979 13.9733 122.465 13.8177 122.763 13.5066C123.075 13.1955 123.23 12.7911 123.23 12.2933C123.23 11.7333 123.043 11.3164 122.67 11.0426C122.309 10.7564 121.824 10.6133 121.214 10.6133H118.134V13.9733ZM118.134 19.76H121.326C122.098 19.76 122.664 19.592 123.025 19.256C123.386 18.92 123.566 18.4782 123.566 17.9306C123.566 17.3084 123.373 16.8542 122.987 16.568C122.614 16.2693 122.098 16.12 121.438 16.12H118.134V19.76Z" fill="#0C111D"/>
<path d="M127.969 22V8.39197H130.713V22H127.969Z" fill="#0C111D"/>
<path d="M137.124 22.168C136.128 22.168 135.251 21.9626 134.492 21.552C133.733 21.1413 133.142 20.5502 132.718 19.7786C132.308 19.0071 132.102 18.08 132.102 16.9973C132.102 15.9644 132.302 15.0622 132.7 14.2906C133.098 13.5066 133.67 12.8969 134.417 12.4613C135.164 12.0257 136.066 11.808 137.124 11.808C138.119 11.808 138.99 12.0133 139.737 12.424C140.496 12.8346 141.081 13.432 141.492 14.216C141.915 14.9875 142.126 15.9146 142.126 16.9973C142.126 18.0302 141.927 18.9386 141.529 19.7226C141.131 20.4942 140.558 21.0977 139.812 21.5333C139.078 21.9564 138.182 22.168 137.124 22.168ZM137.105 19.9466C137.777 19.9466 138.318 19.704 138.729 19.2186C139.14 18.7333 139.345 17.9929 139.345 16.9973C139.345 16.0017 139.146 15.2613 138.748 14.776C138.35 14.2906 137.808 14.048 137.124 14.048C136.439 14.048 135.892 14.2906 135.481 14.776C135.07 15.2613 134.865 16.0017 134.865 16.9973C134.865 17.9804 135.064 18.7209 135.462 19.2186C135.873 19.704 136.421 19.9466 137.105 19.9466Z" fill="#0C111D"/>
<path d="M148.051 22.168C147.056 22.168 146.185 21.9564 145.438 21.5333C144.691 21.0977 144.113 20.4942 143.702 19.7226C143.291 18.9386 143.086 18.0302 143.086 16.9973C143.086 15.952 143.291 15.0435 143.702 14.272C144.125 13.488 144.716 12.8844 145.475 12.4613C146.234 12.0257 147.124 11.808 148.145 11.808C149.003 11.808 149.769 11.9697 150.441 12.2933C151.113 12.6169 151.641 13.0649 152.027 13.6373C152.425 14.2097 152.643 14.8755 152.681 15.6346H149.993C149.905 15.112 149.688 14.72 149.339 14.4586C148.991 14.1849 148.568 14.048 148.07 14.048C147.348 14.048 146.801 14.3155 146.427 14.8506C146.054 15.3857 145.867 16.1013 145.867 16.9973C145.867 17.9804 146.066 18.7146 146.465 19.2C146.875 19.6853 147.404 19.928 148.051 19.928C148.636 19.928 149.097 19.7786 149.433 19.48C149.781 19.1813 149.98 18.7893 150.03 18.304H152.699C152.662 19.088 152.438 19.7724 152.027 20.3573C151.629 20.9297 151.088 21.3777 150.403 21.7013C149.719 22.0124 148.935 22.168 148.051 22.168Z" fill="#0C111D"/>
<path d="M154.01 22V8.39197H156.792V16.1386L157.613 15.1866L160.581 11.9946H163.96L160.114 15.952L164.034 22H160.805L158.77 18.8266L158.173 17.7813L156.792 19.144V22H154.01Z" fill="#0C111D"/>
<path d="M168.843 22.1866C167.387 22.1866 166.261 21.8817 165.464 21.272C164.68 20.6497 164.295 19.8409 164.307 18.8453H166.995C167.008 19.3804 167.194 19.7662 167.555 20.0026C167.928 20.2266 168.383 20.3386 168.918 20.3386C169.478 20.3386 169.901 20.2453 170.187 20.0586C170.473 19.8595 170.616 19.592 170.616 19.256C170.616 18.7955 170.448 18.4969 170.112 18.36C169.789 18.2231 169.272 18.1049 168.563 18.0053C167.829 17.9057 167.157 17.7626 166.547 17.576C165.937 17.3769 165.452 17.0782 165.091 16.68C164.743 16.2817 164.568 15.7155 164.568 14.9813C164.568 13.9235 164.967 13.1333 165.763 12.6106C166.572 12.0755 167.63 11.808 168.936 11.808C170.218 11.808 171.239 12.088 171.998 12.648C172.757 13.1955 173.149 13.9671 173.174 14.9626H170.486C170.486 14.5395 170.336 14.216 170.038 13.992C169.752 13.768 169.36 13.656 168.862 13.656C168.352 13.656 167.966 13.7555 167.704 13.9546C167.443 14.1413 167.312 14.3902 167.312 14.7013C167.312 15.0746 167.48 15.336 167.816 15.4853C168.152 15.6346 168.688 15.7591 169.422 15.8586C169.944 15.9333 170.442 16.0266 170.915 16.1386C171.388 16.2382 171.805 16.4 172.166 16.624C172.539 16.8355 172.832 17.1342 173.043 17.52C173.267 17.8933 173.379 18.3849 173.379 18.9946C173.379 20.0897 172.975 20.8986 172.166 21.4213C171.357 21.9315 170.249 22.1866 168.843 22.1866Z" fill="#0C111D"/>
<defs>
<filter id="filter0_iii_1202_5105" x="0" y="-3" width="32" height="38" filterUnits="userSpaceOnUse" color-interpolation-filters="sRGB">
<feFlood flood-opacity="0" result="BackgroundImageFix"/>
<feBlend mode="normal" in="SourceGraphic" in2="BackgroundImageFix" result="shape"/>
<feColorMatrix in="SourceAlpha" type="matrix" values="0 0 0 0 0 0 0 0 0 0 0 0 0 0 0 0 0 0 127 0" result="hardAlpha"/>
<feOffset dy="-3"/>
<feGaussianBlur stdDeviation="1.5"/>
<feComposite in2="hardAlpha" operator="arithmetic" k2="-1" k3="1"/>
<feColorMatrix type="matrix" values="0 0 0 0 0 0 0 0 0 0 0 0 0 0 0 0 0 0 0.1 0"/>
<feBlend mode="normal" in2="shape" result="effect1_innerShadow_1202_5105"/>
<feColorMatrix in="SourceAlpha" type="matrix" values="0 0 0 0 0 0 0 0 0 0 0 0 0 0 0 0 0 0 127 0" result="hardAlpha"/>
<feOffset dy="3"/>
<feGaussianBlur stdDeviation="1.5"/>
<feComposite in2="hardAlpha" operator="arithmetic" k2="-1" k3="1"/>
<feColorMatrix type="matrix" values="0 0 0 0 1 0 0 0 0 1 0 0 0 0 1 0 0 0 0.1 0"/>
<feBlend mode="normal" in2="effect1_innerShadow_1202_5105" result="effect2_innerShadow_1202_5105"/>
<feColorMatrix in="SourceAlpha" type="matrix" values="0 0 0 0 0 0 0 0 0 0 0 0 0 0 0 0 0 0 127 0" result="hardAlpha"/>
<feMorphology radius="1" operator="erode" in="SourceAlpha" result="effect3_innerShadow_1202_5105"/>
<feOffset/>
<feComposite in2="hardAlpha" operator="arithmetic" k2="-1" k3="1"/>
<feColorMatrix type="matrix" values="0 0 0 0 0.0627451 0 0 0 0 0.0941176 0 0 0 0 0.156863 0 0 0 0.24 0"/>
<feBlend mode="normal" in2="effect2_innerShadow_1202_5105" result="effect3_innerShadow_1202_5105"/>
</filter>
<filter id="filter1_d_1202_5105" x="6" y="6.25" width="19.875" height="24" filterUnits="userSpaceOnUse" color-interpolation-filters="sRGB">
<feFlood flood-opacity="0" result="BackgroundImageFix"/>
<feColorMatrix in="SourceAlpha" type="matrix" values="0 0 0 0 0 0 0 0 0 0 0 0 0 0 0 0 0 0 127 0" result="hardAlpha"/>
<feMorphology radius="1.5" operator="erode" in="SourceAlpha" result="effect1_dropShadow_1202_5105"/>
<feOffset dy="2.25"/>
<feGaussianBlur stdDeviation="2.25"/>
<feComposite in2="hardAlpha" operator="out"/>
<feColorMatrix type="matrix" values="0 0 0 0 0.141176 0 0 0 0 0.141176 0 0 0 0 0.141176 0 0 0 0.1 0"/>
<feBlend mode="normal" in2="BackgroundImageFix" result="effect1_dropShadow_1202_5105"/>
<feBlend mode="normal" in="SourceGraphic" in2="effect1_dropShadow_1202_5105" result="shape"/>
</filter>
<linearGradient id="paint0_linear_1202_5105" x1="16" y1="3.97364e-07" x2="17.3333" y2="32" gradientUnits="userSpaceOnUse">
<stop stop-color="white" stop-opacity="0"/>
<stop offset="1" stop-color="white" stop-opacity="0.12"/>
</linearGradient>
<linearGradient id="paint1_linear_1202_5105" x1="15.8745" y1="7.74998" x2="15.8745" y2="24.25" gradientUnits="userSpaceOnUse">
<stop stop-color="white" stop-opacity="0.8"/>
<stop offset="1" stop-color="white" stop-opacity="0.5"/>
</linearGradient>
<linearGradient id="paint2_linear_1202_5105" x1="16" y1="0" x2="16" y2="32" gradientUnits="userSpaceOnUse">
<stop stop-color="white" stop-opacity="0.12"/>
<stop offset="1" stop-color="white" stop-opacity="0"/>
</linearGradient>
<clipPath id="clip0_1202_5105">
<rect width="32" height="32" rx="6" fill="white"/>
</clipPath>
</defs>
</svg>
